<svg width="54" height="56" viewBox="0 0 54 56" fill="none" xmlns="http://www.w3.org/2000/svg">
<rect x="1" y="-1" width="52" height="54" rx="26" transform="matrix(1 0 0 -1 0 54)" stroke="#5A7184" stroke-width="2"/>
<path d="M32.192 28.0312C31.8795 28.3438 31.4107 28.3125 31.0982 28.0312L27.5357 24.25V33.25C27.5357 33.6562 27.192 34 26.7857 34H25.7857C25.3482 34 25.0357 33.6562 25.0357 33.25V24.25L21.442 28.0312C21.1295 28.3125 20.6607 28.3438 20.3482 28.0312L19.6607 27.3438C19.3795 27.0625 19.3795 26.5625 19.6607 26.2812L25.7545 20.2188C26.0357 19.9062 26.5045 19.9062 26.817 20.2188L32.8795 26.2812C33.1607 26.5625 33.1607 27.0312 32.8795 27.3438L32.192 28.0312Z" fill="#5A7184"/>
</svg>
