<svg width="55" height="56" viewBox="0 0 55 56" fill="none" xmlns="http://www.w3.org/2000/svg">
<rect x="1.05331" y="1" width="52" height="54" rx="26" stroke="#5A7184" stroke-width="2"/>
<path d="M32.2546 27.9688C31.9421 27.6562 31.4734 27.6875 31.1609 27.9688L27.5984 31.75V22.75C27.5984 22.3438 27.2546 22 26.8484 22H25.8484C25.4109 22 25.0984 22.3438 25.0984 22.75V31.75L21.5046 27.9688C21.1921 27.6875 20.7234 27.6562 20.4109 27.9688L19.7234 28.6562C19.4421 28.9375 19.4421 29.4375 19.7234 29.7188L25.8171 35.7812C26.0984 36.0938 26.5671 36.0938 26.8796 35.7812L32.9421 29.7188C33.2234 29.4375 33.2234 28.9688 32.9421 28.6562L32.2546 27.9688Z" fill="#5A7184"/>
</svg>
